<?xml version="1.0" standalone="no"?>
<!DOCTYPE svg PUBLIC "-//W3C//DTD SVG 20010904//EN"
 "http://www.w3.org/TR/2001/REC-SVG-20010904/DTD/svg10.dtd">
<svg version="1.0" xmlns="http://www.w3.org/2000/svg"
 width="1024.000000pt" fill="#FFFFFF" height="1024.000000pt" viewBox="0 0 1024.000000 1024.000000"
 preserveAspectRatio="xMidYMid meet">

<g transform="translate(0.000000,1024.000000) scale(0.100000,-0.100000)"
fill="#FFFFFF" stroke="none">
<path d="M5118 8254 c-58 -31 -58 -33 -58 -515 l0 -441 39 -39 c45 -46 86 -51
139 -19 61 37 62 45 62 511 0 369 -2 425 -16 455 -28 59 -105 81 -166 48z"/>
<path d="M2860 7636 c-39 -12 -80 -66 -80 -103 0 -45 29 -80 240 -283 208
-200 212 -203 254 -203 83 0 146 81 117 150 -10 25 -372 385 -423 421 -32 23
-72 30 -108 18z"/>
<path d="M7397 7637 c-29 -13 -418 -384 -445 -425 -19 -29 -18 -87 4 -119 8
-14 32 -31 51 -40 60 -24 94 -11 186 74 169 156 346 336 358 364 9 24 9 37 -6
75 -25 66 -89 97 -148 71z"/>
<path d="M3910 6896 c-119 -18 -201 -39 -299 -77 -391 -155 -725 -504 -864
-905 -71 -204 -81 -267 -81 -494 0 -200 10 -284 50 -417 6 -23 5 -23 -75 -23
l-81 0 0 -120 0 -120 663 0 c752 0 706 4 785 -85 42 -47 67 -109 103 -252 7
-29 16 -53 19 -53 8 0 96 479 166 905 31 187 63 354 71 372 23 51 61 68 140
64 35 -2 79 -46 92 -93 6 -24 20 -110 31 -193 11 -82 41 -301 65 -485 25 -184
57 -420 71 -525 13 -104 27 -203 31 -220 l6 -30 8 31 c5 17 27 136 49 265 21
129 48 279 59 334 11 55 29 154 41 220 12 65 28 131 35 145 53 101 185 106
244 9 10 -17 26 -70 35 -117 8 -48 34 -188 56 -312 49 -265 88 -461 94 -468 3
-2 8 13 11 34 4 22 22 118 41 214 18 96 47 249 63 340 94 528 133 739 142 767
17 52 62 83 120 83 42 0 55 -5 84 -32 41 -38 41 -41 100 -410 19 -123 62 -380
94 -573 64 -386 57 -371 96 -202 33 141 96 235 174 257 22 6 297 10 728 10
420 0 694 4 698 9 3 6 2 60 -1 120 l-7 111 -74 0 c-40 0 -73 2 -73 3 0 2 9 46
20 98 35 168 45 312 32 461 -35 390 -186 709 -461 970 -118 112 -230 190 -372
257 -204 97 -357 133 -574 134 -231 1 -427 -47 -647 -160 -135 -69 -213 -126
-339 -250 l-96 -95 -84 84 c-202 204 -444 336 -718 395 -145 30 -336 38 -471
19z m3341 -787 c41 -44 95 -143 123 -227 45 -131 59 -225 60 -409 1 -168 1
-172 -23 -197 -18 -19 -35 -26 -63 -26 -60 0 -65 16 -71 235 -6 226 -23 302
-112 480 -30 61 -55 116 -55 123 0 25 40 52 76 52 27 0 43 -7 65 -31z"/>
<path d="M1955 6015 c-51 -18 -110 -81 -124 -131 -16 -59 -15 -2333 1 -2387
17 -55 82 -122 133 -136 51 -14 248 -14 298 0 51 14 114 72 127 118 8 24 10
414 8 1233 l-3 1196 -31 38 c-61 76 -69 79 -227 81 -104 2 -153 -1 -182 -12z
m154 -282 c21 -26 21 -35 21 -416 l-1 -389 -24 -24 c-30 -29 -64 -31 -99 -3
l-26 20 0 401 c0 451 -2 438 71 438 29 0 42 -6 58 -27z"/>
<path d="M8040 6014 c-19 -8 -45 -25 -58 -37 -55 -51 -52 20 -52 -1279 l0
-1203 23 -45 c15 -31 35 -52 63 -67 37 -21 55 -23 196 -24 167 -1 191 5 234
53 55 60 52 -10 59 1243 4 852 3 1174 -6 1213 -13 64 -56 117 -114 143 -53 25
-291 27 -345 3z"/>
<path d="M1470 5647 c-13 -7 -35 -28 -47 -46 l-23 -34 0 -898 0 -898 30 -35
c52 -59 132 -70 202 -28 60 35 58 -3 58 964 0 836 -1 885 -18 917 -10 19 -34
43 -53 53 -39 21 -113 23 -149 5z"/>
<path d="M8698 5643 c-60 -38 -58 2 -58 -970 0 -825 1 -890 18 -923 23 -48 73
-72 135 -67 57 5 95 30 119 78 17 32 18 96 18 907 0 944 2 910 -54 962 -35 32
-137 40 -178 13z"/>
<path d="M1025 5121 c-130 -7 -166 -23 -202 -90 -23 -44 -23 -48 -23 -368 0
-304 1 -326 20 -363 11 -22 37 -51 57 -65 37 -24 42 -25 215 -25 l178 0 0 460
0 460 -67 -2 c-38 -1 -117 -4 -178 -7z"/>
<path d="M9060 4664 l0 -455 183 3 c208 3 227 10 266 91 20 41 21 59 21 358 0
284 -2 318 -19 354 -21 46 -54 79 -94 94 -16 6 -101 11 -193 11 l-164 0 0
-456z"/>
<path d="M5786 5040 c-4 -36 -14 -96 -22 -135 -18 -85 -53 -275 -130 -704 -63
-350 -70 -371 -134 -403 -93 -47 -195 2 -225 107 -12 41 -119 608 -144 760 -5
31 -8 35 -13 20 -15 -45 -137 -734 -168 -950 -12 -82 -28 -165 -35 -182 -30
-72 -144 -98 -204 -47 -17 14 -35 42 -41 62 -10 35 -68 477 -146 1107 -19 154
-38 303 -42 330 l-8 50 -12 -55 c-6 -30 -23 -122 -36 -205 -14 -82 -32 -184
-41 -225 -9 -41 -36 -188 -59 -326 -47 -275 -58 -303 -122 -330 -69 -29 -152
-6 -186 52 -9 16 -42 123 -73 239 -62 232 -73 261 -113 290 -26 19 -45 20
-649 23 l-623 2 0 -111 0 -111 256 4 256 4 118 -140 c350 -419 853 -920 1272
-1268 145 -120 391 -311 489 -381 142 -100 234 -120 334 -73 150 71 641 463
1009 806 315 294 589 583 854 903 l122 147 253 2 252 3 3 108 3 107 -649 0
-649 0 -33 -23 c-19 -12 -42 -36 -51 -52 -10 -17 -41 -120 -70 -230 -58 -224
-76 -267 -122 -295 -66 -41 -164 -15 -199 51 -19 37 -58 226 -108 529 -35 214
-100 580 -104 595 -2 6 -6 -19 -10 -55z"/>
<path d="M4830 2183 c-80 -1 -325 -7 -545 -13 -1021 -28 -1263 -39 -1318 -61
-46 -19 -49 -81 -4 -98 48 -18 540 -41 1282 -60 850 -21 2579 6 3038 48 102
10 135 29 123 74 -15 60 -125 67 -1516 102 -542 14 -660 15 -1060 8z"/>
<path d="M7633 2103 l-53 -4 0 -45 0 -44 60 0 60 0 0 50 c0 28 -3 49 -7 48 -5
-1 -32 -3 -60 -5z"/>
<path d="M7904 2101 c-2 -2 -4 -24 -4 -48 l0 -43 60 0 60 0 0 48 0 47 -56 0
c-31 0 -58 -2 -60 -4z"/>
<path d="M1650 2080 c-11 -11 -20 -26 -20 -33 0 -32 24 -37 167 -37 l143 0 0
45 0 45 -135 0 c-122 0 -137 -2 -155 -20z"/>
<path d="M2220 2055 l0 -45 60 0 60 0 0 45 0 45 -60 0 -60 0 0 -45z"/>
<path d="M2542 2058 l3 -43 58 -3 57 -3 0 46 0 45 -61 0 -60 0 3 -42z"/>
<path d="M8330 2055 l0 -45 155 0 c144 0 155 1 165 20 12 23 0 54 -26 64 -8 3
-78 6 -155 6 l-139 0 0 -45z"/>
</g>
</svg>
